name mfd
datacolumns  50
datarows  5
range   1.78500000 1.80500000
cursor 1.0 1.0 0.0
keys m_key
wrap
enforce_loops no
enforce_constraints no
calc_derivatives -1.000000
event_color 0.000000 0.000000 0.000000
endheader

            time        pelvis_tz        pelvis_tx        pelvis_ty      pelvis_tilt      pelvis_list       pelvis_rot       lumbar_ext   lumbar_latbend       lumbar_rot         neck_ext     neck_latbend         neck_rot        arm_add_r       arm_flex_r        arm_rot_r     elbow_flex_r        pro_sup_r     wrist_flex_r        arm_add_l       arm_flex_l        arm_rot_l     elbow_flex_l        pro_sup_l     wrist_flex_l       hip_flex_r        hip_add_r        hip_rot_r        knee_tz_r        knee_tx_r        knee_ty_r      knee_flex_r       knee_add_r       knee_rot_r          pf_tz_r          pf_tx_r          pf_ty_r        pf_flex_r         pf_rot_r        pf_tilt_r       hip_flex_l        hip_add_l        hip_rot_l      knee_flex_l     ankle_flex_l     subt_angle_l      mtp_angle_l     ankle_flex_r     subt_angle_r      mtp_angle_r 
      1.78500000      -0.18528400       0.71367800       0.87005500     -11.14521600      -0.24154000      -6.75395500      -2.34884200      -1.29792000       8.50105400       0.00000000       0.00000000       0.00000000     -16.97891700      14.73689800     -18.80906100      39.43069300      70.00000000       0.00000000     -12.20892700     -14.77577900     -56.31077700       8.64349300      70.00000000       0.00000000      -7.86563300       4.78113600      -2.32598700       0.00125200       0.00283600       0.00133400       0.86268200       2.02491700       4.47419300       0.00477700       0.04918900       0.00866100       9.27814600       2.47027400      -3.15259900      35.38246900       3.20265900       4.29083300       0.44395900       3.87698600       0.00100000       0.00000000      16.51700900       0.00087500       0.00000000 
      1.79000000      -0.18542600       0.72068300       0.86876600     -11.05874800      -0.16509900      -6.82046200      -2.39156400      -1.43479300       8.57598500       0.00000000       0.00000000       0.00000000     -16.89639200      14.71139000     -18.93289700      39.30252200      70.00000000       0.00000000     -12.25469200     -14.91209100     -56.47683600       8.60282200      70.00000000       0.00000000      -8.16609200       4.58721500      -2.18247600       0.00122300       0.00281100       0.00134600       1.39576400       2.01715400       4.85574300       0.00468600       0.04920800       0.00823900       9.32975600       2.45828600      -3.16297600      35.49171900       3.05227900       4.16439400       1.12103000       3.64236400       0.00100000       0.00000000      16.89795300       0.00079100       0.00000000 
      1.79500000      -0.18557200       0.72775800       0.86753900     -10.96233000      -0.06788200      -6.88084400      -2.43562100      -1.59907100       8.63912700       0.00000000       0.00000000       0.00000000     -16.79812000      14.67365600     -19.06196100      39.14574700      70.00000000       0.00000000     -12.30285400     -15.02603900     -56.61892300       8.56363700      70.00000000       0.00000000      -8.46363800       4.37129900      -2.04102600       0.00118000       0.00276800       0.00135800       1.95379700       1.99236900       5.23600700       0.00459500       0.04922600       0.00778800       9.39873700       2.44436200      -3.17248800      35.57615000       2.87953600       4.02332100       1.85811500       3.34758300       0.00099900       0.00000000      17.23872100       0.00069400       0.00000000 
      1.80000000      -0.18572300       0.73490300       0.86637900     -10.85715500       0.04934400      -6.93555500      -2.47940600      -1.78946700       8.69082800       0.00000000       0.00000000       0.00000000     -16.68478100      14.62346500     -19.19567800      38.96025300      70.00000000       0.00000000     -12.35280600     -15.11757700     -56.73658200       8.52574000      70.00000000       0.00000000      -8.75613300       4.13444100      -1.90113700       0.00111900       0.00270300       0.00137200       2.53768800       1.94248700       5.61539400       0.00450800       0.04924100       0.00731000       9.48729900       2.42797000      -3.18080900      35.63537100       2.68572700       3.86897200       2.64452500       2.99603800       0.00099900       0.00000000      17.53139900       0.00058600       0.00000000 
      1.80500000      -0.18588000       0.74211800       0.86529100     -10.74449500       0.18554100      -6.98493700      -2.52141400      -2.00432000       8.73132400       0.00000000       0.00000000       0.00000000     -16.55718300      14.56074000     -19.33359600      38.74612300      70.00000000       0.00000000     -12.40385300     -15.18656900     -56.82945600       8.48893500      70.00000000       0.00000000      -9.04099800       3.87783800      -1.76275500       0.00104400       0.00260300       0.00138300       3.14886500       1.87754400       5.99289000       0.00442700       0.04925700       0.00679100       9.59978800       2.40856500      -3.18676100      35.66959900       2.47233900       3.70268900       3.47056600       2.59302600       0.00099900       0.00000000      17.76790600       0.00046600       0.00000000 
